Coordinates
version=1
nRows=38
nColumns=12
inDegrees=yes

Units are S.I. units (second, meters, Newtons, ...)
Angles are in degrees

endheader
time	SC_y	SC_z	SC_x	AC_y	AC_z	AC_x	GH_y	GH_z	GH_yy	EL_x	PS_y
       0.0              -21.77         0.8375          84.81          55.68         -6.611         -6.237          113.6          26.18          16.07          63.17          17.55
   0.04814              -21.78          0.839          84.81          55.68          -6.61         -6.235          113.5          26.17          16.09          63.16          17.55
   0.09627              -21.78         0.8406          84.81          55.67         -6.609         -6.232          113.5          26.16          16.11          63.16          17.56
    0.1444              -21.79         0.8423           84.8          55.67         -6.608          -6.23          113.4          26.16          16.13          63.15          17.56
    0.1925               -21.8         0.8441           84.8          55.67         -6.607         -6.227          113.4          26.15          16.15          63.14          17.57
    0.2407               -21.8          0.846           84.8          55.67         -6.606         -6.224          113.4          26.15          16.17          63.13          17.57
    0.2888              -21.81          0.848          84.79          55.67         -6.605          -6.22          113.3          26.14          16.19          63.12          17.58
    0.3369              -21.82         0.8502          84.79          55.66         -6.604         -6.217          113.3          26.13          16.22          63.12          17.59
    0.3851              -21.82         0.8526          84.78          55.66         -6.603         -6.213          113.2          26.12          16.25          63.11           17.6
    0.4332              -21.83         0.8551          84.78          55.66         -6.601         -6.209          113.1          26.11          16.28           63.1          17.61
    0.4814              -21.84         0.8578          84.77          55.66           -6.6         -6.205          113.1           26.1          16.31          63.09          17.61
    0.5295              -21.85         0.8607          84.77          55.65         -6.599           -6.2          113.0          26.09          16.34          63.07          17.62
    0.5776              -21.86         0.8638          84.76          55.65         -6.597         -6.195          112.9          26.08          16.38          63.06          17.63
    0.6258              -21.87         0.8672          84.75          55.65         -6.595          -6.19          112.9          26.07          16.42          63.05          17.65
    0.6739              -21.88         0.8708          84.75          55.64         -6.593         -6.184          112.8          26.06          16.47          63.03          17.66
     0.722               -21.9         0.8748          84.74          55.64         -6.591         -6.178          112.7          26.05          16.51          63.02          17.67
    0.7702              -21.91         0.8791          84.73          55.63         -6.589         -6.171          112.6          26.03          16.56           63.0          17.69
    0.8183              -21.93         0.8838          84.72          55.63         -6.586         -6.163          112.5          26.01          16.62          62.98           17.7
    0.8664              -21.94         0.8889          84.71          55.62         -6.584         -6.155          112.4           26.0          16.68          62.96          17.72
    0.9146              -21.96         0.8946           84.7          55.62         -6.581         -6.146          112.2          25.98          16.75          62.93          17.74
    0.9627              -21.98         0.9007          84.69          55.61         -6.578         -6.136          112.1          25.95          16.82          62.91          17.76
     1.011               -22.0         0.9075          84.67           55.6         -6.574         -6.126          111.9          25.93           16.9          62.88          17.78
     1.059              -22.03          0.915          84.66           55.6          -6.57         -6.114          111.7          25.91          16.99          62.85          17.81
     1.107              -22.05         0.9233          84.64          55.59         -6.566         -6.101          111.6          25.88          17.09          62.82          17.84
     1.155              -22.08         0.9325          84.63          55.58         -6.561         -6.086          111.3          25.84           17.2          62.78          17.87
     1.203              -22.12         0.9428           84.6          55.57         -6.556         -6.069          111.1          25.81          17.32          62.74           17.9
     1.252              -22.16         0.9544          84.58          55.55          -6.55         -6.051          110.8          25.77          17.46          62.69          17.94
       1.3               -22.2         0.9673          84.56          55.54         -6.543          -6.03          110.5          25.72          17.61          62.64          17.98
     1.348              -22.25          0.982          84.53          55.52         -6.535         -6.007          110.2          25.67          17.79          62.58          18.03
     1.396               -22.3         0.9987          84.49          55.51         -6.527          -5.98          109.8          25.61          17.99          62.51          18.09
     1.444              -22.36          1.018          84.46          55.49         -6.517          -5.95          109.4          25.55          18.21          62.43          18.15
     1.492              -22.43          1.039          84.41          55.46         -6.505         -5.915          108.8          25.47          18.47          62.34          18.23
      1.54              -22.52          1.065          84.36          55.44         -6.492         -5.875          108.3          25.38          18.77          62.24          18.31
     1.588              -22.61          1.094          84.31           55.4         -6.477         -5.829          107.6          25.28          19.12          62.12          18.41
     1.637              -22.72          1.128          84.24          55.37         -6.459         -5.774          106.8          25.16          19.53          61.98          18.53
     1.685              -22.86          1.169          84.16          55.32         -6.438          -5.71          105.8          25.02          20.01          61.81          18.66
     1.733              -23.01          1.216          84.06          55.27         -6.413         -5.634          104.7          24.85          20.58          61.61          18.82
     1.781               -23.2          1.274          83.95          55.21         -6.383         -5.542          103.4          24.65          21.27          61.38          19.02
